<?xml version="1.0" encoding="UTF-8" standalone="no"?>
<svg
   version="1.0"
   width="79.910004pt"
   height="83.099998pt"
   viewBox="0 0 79.910002 83.099998"
   preserveAspectRatio="xMidYMid"
   id="svg2"
   sodipodi:docname="favicon-incomelec (1).svg"
   inkscape:version="1.4 (86a8ad7, 2024-10-11)"
   xmlns:inkscape="http://www.inkscape.org/namespaces/inkscape"
   xmlns:sodipodi="http://sodipodi.sourceforge.net/DTD/sodipodi-0.dtd"
   xmlns="http://www.w3.org/2000/svg"
   xmlns:svg="http://www.w3.org/2000/svg">
  <defs
     id="defs2" />
  <sodipodi:namedview
     id="namedview2"
     pagecolor="#ffffff"
     bordercolor="#000000"
     borderopacity="0.25"
     inkscape:showpageshadow="2"
     inkscape:pageopacity="0.0"
     inkscape:pagecheckerboard="0"
     inkscape:deskcolor="#d1d1d1"
     inkscape:document-units="pt"
     inkscape:zoom="5.05"
     inkscape:cx="80"
     inkscape:cy="80"
     inkscape:window-width="1920"
     inkscape:window-height="1009"
     inkscape:window-x="-8"
     inkscape:window-y="-8"
     inkscape:window-maximized="1"
     inkscape:current-layer="svg2" />
  <path
     style="fill:#00973a;fill-opacity:1;stroke:#00973a;stroke-width:0.207921;stroke-opacity:1"
     d="M 24.950496,82.548059 C 18.525751,82.392249 11.037411,81.929909 8.539604,81.534829 6.2086513,81.166139 3.715486,79.635399 2.7428919,77.975789 1.5239881,75.895889 0.9382846,72.092659 0.7522254,65.049509 0.5889524,58.868919 0.581068,24.684005 0.7415724,18.861386 0.9532098,11.183819 1.4397526,7.6625474 2.5985776,5.4216271 3.2988992,4.0673551 5.5643773,2.3555621 7.2065948,1.9398121 8.3011368,1.6627141 11.08507,1.3279781 14.034654,1.1188171 18.89815,0.7739361 23.634298,0.65612912 36.08911,0.57023812 c 16.395582,-0.113068 26.32078,0.12168 32.970297,0.77980498 2.91507,0.288514 3.941805,0.524887 5.23752,1.205765 3.432532,1.803742 4.34376,4.2447083 4.895002,13.1125079 0.264818,4.260021 0.260138,47.430203 -0.0053,51.887773 -0.520755,8.73464 -1.469325,11.25924 -4.909725,13.06711 -2.16714,1.13881 -6.411119,1.55741 -19.029054,1.87691 -4.943704,0.12517 -25.754374,0.15811 -30.297029,0.0479 z m 11.361385,-10.30812 c 1.960397,-0.0918 3.605473,-0.19173 3.655726,-0.22209 0.05025,-0.0304 0.129587,-0.27401 0.176298,-0.54147 0.04671,-0.26745 1.294634,-6.2338 2.773163,-13.25856 5.786924,-27.494695 8.577251,-41.061336 9.220945,-44.832482 0.277665,-1.626726 0.282357,-1.783729 0.06062,-2.028739 -0.343456,-0.379515 -1.75443,-0.58491 -4.614435,-0.67172 -4.126453,-0.125251 -6.817315,0.23732 -7.449759,1.00379 -0.339669,0.411651 -4.234438,18.620856 -9.978981,46.654701 -2.344009,11.43896 -2.696205,13.33961 -2.512816,13.56057 0.245248,0.29551 2.917954,0.63008 4.362304,0.54608 0.408417,-0.0238 2.346535,-0.11829 4.306931,-0.21008 z"
     id="path4" />
  <path
     style="fill:#f8f7f9;fill-opacity:1;stroke:#f8f7f9;stroke-width:0.207921;stroke-opacity:1"
     d="m 29.331683,72.146965 c -0.24505,-0.03355 -0.703086,-0.128226 -1.017859,-0.210385 l -0.572313,-0.149383 0.099,-0.695579 c 0.582863,-4.095024 11.540219,-56.476104 12.302404,-58.811009 0.349703,-1.071294 1.804969,-1.392478 6.267972,-1.383373 2.936342,0.006 4.879118,0.174255 5.432713,0.47053 0.190605,0.102008 0.284923,0.310845 0.284549,0.630033 -0.0013,1.137417 -1.670176,9.341241 -9.741838,47.889668 l -2.495337,11.917169 -0.452915,0.07054 c -1.536203,0.239234 -8.898186,0.437223 -10.10638,0.271795 z"
     id="path5" />
</svg>
