<?xml version="1.0" encoding="UTF-8" standalone="no"?>
<svg
   version="1.0"
   width="92pt"
   height="95pt"
   viewBox="0 0 92 95"
   preserveAspectRatio="xMidYMid"
   id="svg2"
   sodipodi:docname="favicon-incomelec (1).svg"
   inkscape:version="1.4 (86a8ad7, 2024-10-11)"
   xmlns:inkscape="http://www.inkscape.org/namespaces/inkscape"
   xmlns:sodipodi="http://sodipodi.sourceforge.net/DTD/sodipodi-0.dtd"
   xmlns="http://www.w3.org/2000/svg"
   xmlns:svg="http://www.w3.org/2000/svg">
  <defs
     id="defs2" />
  <sodipodi:namedview
     id="namedview2"
     pagecolor="#ffffff"
     bordercolor="#000000"
     borderopacity="0.25"
     inkscape:showpageshadow="2"
     inkscape:pageopacity="0.0"
     inkscape:pagecheckerboard="0"
     inkscape:deskcolor="#d1d1d1"
     inkscape:document-units="pt"
     inkscape:zoom="5.05"
     inkscape:cx="80"
     inkscape:cy="80"
     inkscape:window-width="1920"
     inkscape:window-height="1009"
     inkscape:window-x="-8"
     inkscape:window-y="-8"
     inkscape:window-maximized="1"
     inkscape:current-layer="svg2" />
  <g
     transform="matrix(0.1,0,0,-0.1,-14.40594,107.52475)"
     fill="#000000"
     stroke="none"
     id="g2"
     style="fill:#006f32;fill-opacity:1">
    <path
       d="m 267,1056 c -50,-18 -76,-42 -98,-91 -17,-36 -19,-71 -19,-365 0,-489 -19,-469 455,-469 367,0 391,6 436,104 17,36 19,71 19,365 0,489 19,469 -455,469 -228,0 -309,-3 -338,-13 z m 673,-61 c 58,-30 60,-43 60,-395 0,-352 -2,-365 -60,-395 -43,-22 -627,-22 -670,0 -58,30 -60,43 -60,395 0,350 2,364 58,394 41,23 629,23 672,1 z"
       id="path1"
       style="fill:#006f32;fill-opacity:1" />
    <path
       d="M 605,898 C 599,881 480,310 480,298 c 0,-5 28,-8 63,-6 l 62,3 62,295 c 34,162 62,301 63,308 0,8 -19,12 -60,12 -39,0 -62,-4 -65,-12 z"
       id="path2"
       style="fill:#006f32;fill-opacity:1" />
  </g>
</svg>
