<?xml version="1.0" encoding="UTF-8" standalone="no"?>
<svg
   viewBox="0 0 266.72421 70.014038"
   version="1.1"
   id="svg10"
   sodipodi:docname="incomelecVerde2Filled.svg"
   inkscape:version="1.4 (86a8ad7, 2024-10-11)"
   xml:space="preserve"
   width="266.72421"
   height="70.014038"
   xmlns:inkscape="http://www.inkscape.org/namespaces/inkscape"
   xmlns:sodipodi="http://sodipodi.sourceforge.net/DTD/sodipodi-0.dtd"
   xmlns="http://www.w3.org/2000/svg"
   xmlns:svg="http://www.w3.org/2000/svg"
   xmlns:rdf="http://www.w3.org/1999/02/22-rdf-syntax-ns#"
   xmlns:cc="http://creativecommons.org/ns#"
   xmlns:dc="http://purl.org/dc/elements/1.1/"><sodipodi:namedview
     id="namedview10"
     pagecolor="#ffffff"
     bordercolor="#000000"
     borderopacity="0.25"
     inkscape:showpageshadow="2"
     inkscape:pageopacity="0.0"
     inkscape:pagecheckerboard="0"
     inkscape:deskcolor="#d1d1d1"
     inkscape:zoom="6.6286742"
     inkscape:cx="136.00005"
     inkscape:cy="48.878552"
     inkscape:window-width="2880"
     inkscape:window-height="1514"
     inkscape:window-x="-11"
     inkscape:window-y="564"
     inkscape:window-maximized="1"
     inkscape:current-layer="Capa_2"
     showgrid="false" /><defs
     id="defs1"><style
       id="style1">.cls-1{fill:#156229;}</style></defs><title
     id="title1">incomelec</title><g
     id="Capa_2"
     data-name="Capa 2"
     transform="translate(-6.3138316,-5.8086635)"><g
       id="g1"><path
         d="m 8.8152937,21.422621 c 0,-6.818128 5.7691203,-12.344972 12.8855533,-12.344972 H 227.86969 c 7.11669,0 12.88555,5.526844 12.88555,12.344972 0,6.818128 -5.76886,12.344972 -12.88555,12.344972 H 21.700847 c -7.116433,0 -12.8855533,-5.526844 -12.8855533,-12.344972 z"
         id="路径"
         fill="#95c11f"
         style="fill:#f8f7f9;fill-opacity:1;stroke-width:12.6124" /><path
         d="m 8.6649766,29.302257 c 0,-6.818128 5.7691194,-12.344972 12.8855524,-12.344972 H 227.71937 c 7.11669,0 12.88555,5.526844 12.88555,12.344972 0,6.818128 -5.76886,12.344972 -12.88555,12.344972 H 21.550529 c -7.116433,0 -12.8855524,-5.526844 -12.8855524,-12.344972 z"
         id="路径-5"
         fill="#95c11f"
         style="fill:#f8f7f9;fill-opacity:1;stroke-width:12.6124" /><path
         d="m 8.0792749,38.754836 c 0,-6.818128 5.7691201,-12.344972 12.8855601,-12.344972 H 227.13368 c 7.11669,0 12.88555,5.526844 12.88555,12.344972 0,6.818128 -5.76886,12.344972 -12.88555,12.344972 H 20.964835 c -7.11644,0 -12.8855601,-5.526844 -12.8855601,-12.344972 z"
         id="路径-9"
         fill="#95c11f"
         style="fill:#f8f7f9;fill-opacity:1;stroke-width:12.6124" /><path
         d="m 8.5196365,46.534655 c 0,-6.818128 5.7691195,-12.344972 12.8855595,-12.344972 H 227.57404 c 7.11669,0 12.88555,5.526844 12.88555,12.344972 0,6.818128 -5.76886,12.344972 -12.88555,12.344972 H 21.405196 c -7.11644,0 -12.8855595,-5.526844 -12.8855595,-12.344972 z"
         id="路径-0"
         fill="#95c11f"
         style="fill:#f8f7f9;fill-opacity:1;stroke-width:12.6124" /><path
         d="m 7.7653378,55.659994 c 0,-6.818128 5.7691202,-12.344972 12.8855602,-12.344972 H 226.81974 c 7.11669,0 12.88555,5.526844 12.88555,12.344972 0,6.818128 -5.76886,12.344972 -12.88555,12.344972 H 20.650898 c -7.11644,0 -12.8855602,-5.526844 -12.8855602,-12.344972 z"
         id="路径-1"
         fill="#95c11f"
         style="fill:#f8f7f9;fill-opacity:1;stroke-width:12.6124" /><path
         d="m 9.3343876,61.000537 c 0,-6.818128 5.7691204,-12.344972 12.8855594,-12.344972 H 228.38879 c 7.11669,0 12.88555,5.526844 12.88555,12.344972 0,6.818128 -5.76886,12.344972 -12.88555,12.344972 H 22.219947 c -7.116439,0 -12.8855594,-5.526844 -12.8855594,-12.344972 z"
         id="路径-8"
         fill="#95c11f"
         style="fill:#f8f7f9;fill-opacity:1;stroke-width:12.6124" /><path
         d="m 38.018822,21.099813 c 0,-6.818128 5.76912,-12.3449717 12.88556,-12.3449717 H 257.07322 c 7.11669,0 12.88555,5.5268437 12.88555,12.3449717 0,6.818128 -5.76886,12.344972 -12.88555,12.344972 H 50.904382 c -7.11644,0 -12.88556,-5.526844 -12.88556,-12.344972 z"
         id="路径-3"
         fill="#95c11f"
         style="fill:#f8f7f9;fill-opacity:1;stroke-width:12.6124" /><path
         d="m 255.41431,29.791453 c 0,-6.818128 0.41071,-12.344971 0.91735,-12.344971 h 14.67756 c 0.50665,0 0.91734,5.526843 0.91734,12.344971 0,6.818128 -0.41069,12.344972 -0.91734,12.344972 h -14.67756 c -0.50664,0 -0.91735,-5.526844 -0.91735,-12.344972 z"
         id="路径-7-8"
         fill="#95c11f"
         style="fill:#f8f7f9;fill-opacity:1;stroke-width:3.36522" /><path
         d="m 38.342171,31.681623 c 0,-6.818128 5.76912,-12.344972 12.88556,-12.344972 H 257.39657 c 7.11669,0 12.88555,5.526844 12.88555,12.344972 0,6.818128 -5.76886,12.344972 -12.88555,12.344972 H 51.227731 c -7.11644,0 -12.88556,-5.526844 -12.88556,-12.344972 z"
         id="路径-4"
         fill="#95c11f"
         style="fill:#f8f7f9;fill-opacity:1;stroke-width:12.6124" /><path
         d="m 37.971673,43.22461 c 0,-6.818128 5.76912,-12.344972 12.88556,-12.344972 H 257.02607 c 7.11669,0 12.88555,5.526844 12.88555,12.344972 0,6.818128 -5.76886,12.344972 -12.88555,12.344972 H 50.857233 c -7.11644,0 -12.88556,-5.526844 -12.88556,-12.344972 z"
         id="路径-06"
         fill="#95c11f"
         style="fill:#f8f7f9;fill-opacity:1;stroke-width:12.6124" /><path
         d="m 38.139727,52.845243 c 0,-6.818128 5.76912,-12.344972 12.88556,-12.344972 H 257.19413 c 7.11669,0 12.88555,5.526844 12.88555,12.344972 0,6.818128 -5.76886,12.344972 -12.88555,12.344972 H 51.025287 c -7.11644,0 -12.88556,-5.526844 -12.88556,-12.344972 z"
         id="路径-18"
         fill="#95c11f"
         style="fill:#f8f7f9;fill-opacity:1;stroke-width:12.6124" /><path
         d="m 38.812487,61.125334 c 0,-6.818128 5.76912,-12.344972 12.88556,-12.344972 H 257.86689 c 7.11669,0 12.88555,5.526844 12.88555,12.344972 0,6.818128 -5.76886,12.344972 -12.88555,12.344972 H 51.698047 c -7.11644,0 -12.88556,-5.526844 -12.88556,-12.344972 z"
         id="路径-96"
         fill="#95c11f"
         style="fill:#f8f7f9;fill-opacity:1;stroke-width:12.6124" /><path
         d="m 7.6206335,53.439812 c 0,-6.818128 0.41071,-12.344971 0.91735,-12.344971 H 23.215543 c 0.50665,0 0.91734,5.526843 0.91734,12.344971 0,6.818128 -0.41069,12.344972 -0.91734,12.344972 H 8.5379835 c -0.50664,0 -0.91735,-5.526844 -0.91735,-12.344972 z"
         id="路径-7-98"
         fill="#95c11f"
         style="fill:#f8f7f9;fill-opacity:1;stroke-width:3.36522" /><path
         d="m 7.4531218,40.159722 c 0,-6.818128 0.41071,-12.344971 0.91735,-12.344971 H 23.048032 c 0.50665,0 0.91734,5.526843 0.91734,12.344971 0,6.818128 -0.41069,12.344972 -0.91734,12.344972 H 8.3704718 c -0.50664,0 -0.91735,-5.526844 -0.91735,-12.344972 z"
         id="路径-7-3"
         fill="#95c11f"
         style="fill:#f8f7f9;fill-opacity:1;stroke-width:3.36522" /><path
         d="m 247.78206,20.966701 c 0,-6.818128 0.41071,-12.3449711 0.91735,-12.3449711 h 14.67756 c 0.50665,0 0.91734,5.5268431 0.91734,12.3449711 0,6.818128 -0.41069,12.344972 -0.91734,12.344972 h -14.67756 c -0.50664,0 -0.91735,-5.526844 -0.91735,-12.344972 z"
         id="路径-7"
         fill="#95c11f"
         style="fill:#f8f7f9;fill-opacity:1;stroke-width:3.36522" /><path
         d="m 8.5435292,23.315018 c 0,-6.90145 1.044856,-12.495833 2.3337598,-12.495833 h 37.34005 c 1.28893,0 2.333734,5.594383 2.333734,12.495833 0,6.901446 -1.044804,12.495829 -2.333734,12.495829 h -37.34005 c -1.2889038,0 -2.3337598,-5.594383 -2.3337598,-12.495829 z"
         id="路径-7-9"
         fill="#95c11f"
         style="fill:#f8f7f9;fill-opacity:1;stroke-width:5.40022" /></g><g
       id="Capa_1-2"
       data-name="Capa 1"
       transform="translate(6.3160255,5.8227013)"
       style="fill:#00973a;fill-opacity:1"><path
         class="cls-1"
         d="M 266.72,13.09 A 12.47,12.47 0 0 0 264.93,6.52 13.08,13.08 0 0 0 253,0 H 13.11 A 13.13,13.13 0 0 0 0,13.37 V 56.9 a 12.47,12.47 0 0 0 1.79,6.58 C 4.43,67.8 8.46,70 13.78,70 h 239.83 a 13.13,13.13 0 0 0 13.11,-13.36 z m -4.41,38.2 v 5.33 a 8.72,8.72 0 0 1 -8.77,9 H 13.71 A 8.87,8.87 0 0 1 6.22,62.2 8.28,8.28 0 0 1 4.42,56.95 q 0,-19.66 0,-39.33 v -4.2 a 8.71,8.71 0 0 1 8.76,-9 H 253 a 8.85,8.85 0 0 1 7.49,3.43 8.28,8.28 0 0 1 1.8,5.25 q 0.03,19.09 0.02,38.19 z"
         id="path11"
         style="fill:#00973a;fill-opacity:1" /><path
         class="cls-1"
         d="m 146.53,21 c -2.07,0 -4.13,0 -6.2,0 a 1.15,1.15 0 0 0 -1.22,0.78 q -3.95,8.18 -8,16.32 c -0.14,0.28 -0.18,0.63 -0.56,0.85 -0.12,-2.5 -0.23,-5 -0.34,-7.41 -0.14,-3.27 -0.28,-6.55 -0.39,-9.82 0,-0.55 -0.2,-0.72 -0.75,-0.72 -2.12,0 -4.25,0 -6.37,0 -0.43,0 -0.63,0.09 -0.72,0.57 -0.27,1.52 -0.61,3 -0.93,4.54 Q 119,36.19 116.84,46.32 c -0.12,0.59 0,0.73 0.6,0.71 1.06,0 2.13,-0.05 3.19,0 0.7,0 1,-0.16 1.1,-0.9 1.25,-6.75 2.56,-13.5 3.84,-20.24 h 0.13 c 0.06,1.18 0.14,2.37 0.19,3.55 0.24,5.66 0.49,11.33 0.72,17 0,0.5 0.18,0.61 0.63,0.6 1.22,0 2.43,-0.05 3.64,0 a 1.12,1.12 0 0 0 1.22,-0.78 c 2.59,-5.51 5.22,-11 7.83,-16.49 l 1.69,-3.49 c -0.24,1.78 -0.64,3.51 -1.05,5.24 q -1.75,7.36 -3.52,14.74 c -0.13,0.53 -0.12,0.82 0.58,0.78 1.15,-0.06 2.3,0 3.46,0 0.52,0 0.73,-0.14 0.84,-0.66 Q 144.48,34 147.1,21.66 c 0.13,-0.66 0,-0.72 -0.57,-0.66 z"
         id="path12"
         style="fill:#00973a;fill-opacity:1" /><path
         class="cls-1"
         d="m 61.22,20.94 c -1.12,0 -2.25,0.06 -3.37,0 -0.62,0 -0.83,0.2 -0.94,0.75 q -1.2,5.83 -2.42,11.65 l -1.05,5 L 53,37.23 C 50.9,32.05 48.79,26.86 46.71,21.67 a 0.94,0.94 0 0 0 -1,-0.73 c -1.19,0 -2.37,0 -3.55,0 -0.58,0 -0.79,0.18 -0.9,0.73 -0.44,2.23 -0.92,4.44 -1.38,6.67 -1.25,6 -2.49,12 -3.76,18 -0.12,0.55 0,0.67 0.52,0.65 1.21,0 2.43,0 3.64,0 0.59,0 0.75,-0.18 0.86,-0.74 0.49,-2.52 1,-5 1.58,-7.55 0.62,-3 1.24,-6 1.92,-9.17 0.22,0.52 0.36,0.81 0.48,1.1 2.1,5.22 4.22,10.44 6.29,15.67 a 0.91,0.91 0 0 0 1,0.69 c 1.18,0 2.37,0 3.55,0 0.53,0 0.73,-0.14 0.83,-0.66 0.4,-2.08 0.86,-4.15 1.3,-6.22 1.28,-6.14 2.55,-12.27 3.85,-18.4 0.12,-0.64 -0.08,-0.79 -0.72,-0.77 z"
         id="path13"
         style="fill:#00973a;fill-opacity:1" /><path
         class="cls-1"
         d="m 104.6,20.5 a 13.39,13.39 0 0 0 -11.6,6.21 19.19,19.19 0 0 0 -2.81,8 12.79,12.79 0 0 0 0.51,6 9.23,9.23 0 0 0 8.09,6.63 c 6,0.7 10.82,-1.47 14.06,-6.7 a 18.32,18.32 0 0 0 2.57,-8 c 0.73,-6.98 -3.9,-12.18 -10.82,-12.14 z m 1.64,20.43 a 6.72,6.72 0 0 1 -5.8,2 5.65,5.65 0 0 1 -5,-5 13.18,13.18 0 0 1 3.83,-10.94 6.69,6.69 0 0 1 8.11,-1.06 c 1.8,1.11 2.7,3.09 2.66,6.63 a 12.88,12.88 0 0 1 -3.8,8.37 z"
         id="path14"
         style="fill:#00973a;fill-opacity:1" /><path
         class="cls-1"
         d="m 199.61,21 c -0.48,0 -0.59,0.22 -0.68,0.64 Q 196.37,34 193.76,46.38 c -0.13,0.58 0,0.65 0.53,0.65 2,0 4.07,0 6.1,0 4.28,0 8.56,0 12.84,0 0.61,0 0.84,-0.18 0.94,-0.76 0.21,-1.19 0.48,-2.36 0.74,-3.63 h -1.06 c -4.4,0 -8.8,0 -13.2,0 -0.79,0 -0.89,-0.19 -0.7,-0.92 0.46,-1.76 0.85,-3.53 1.21,-5.31 0.14,-0.68 0.42,-0.9 1.15,-0.89 3.85,0 7.7,0 11.56,0 0.86,0 1.15,-0.28 1.26,-1.06 a 16.56,16.56 0 0 1 0.46,-2.31 c 0.25,-0.8 0.09,-1 -0.79,-1 -3.85,0 -7.71,0 -11.56,0 -0.83,0 -0.94,-0.23 -0.75,-1 0.34,-1.35 0.6,-2.72 0.85,-4.09 0.11,-0.63 0.36,-0.86 1,-0.85 4.13,0 8.25,0 12.38,0 0.57,0 0.8,-0.19 0.9,-0.72 0.21,-1.19 0.47,-2.37 0.71,-3.56 a 1,1 0 0 0 -0.29,-0.08 z"
         id="path15"
         style="fill:#00973a;fill-opacity:1" /><path
         class="cls-1"
         d="m 171,20.94 q -8.88,0 -17.75,0 c -0.63,0 -0.82,0.23 -0.93,0.78 q -2.53,12.28 -5.1,24.53 c -0.14,0.63 0,0.8 0.67,0.79 3.13,0 6.25,0 9.38,0 3.13,0 6,0 9,0 0.85,0 1.34,-0.13 1.41,-1.1 a 8.58,8.58 0 0 1 0.49,-2.3 c 0.33,-1 -0.1,-1 -0.87,-1 -4.37,0 -8.74,0 -13.11,0 -0.91,0 -1,-0.23 -0.79,-1 0.46,-1.72 0.88,-3.46 1.22,-5.21 0.13,-0.68 0.38,-0.87 1.06,-0.87 3.94,0 7.89,0 11.83,0 0.66,0 0.91,-0.2 1,-0.83 0.12,-0.8 0.33,-1.6 0.5,-2.4 0.25,-1.15 0.25,-1.15 -0.92,-1.15 -3.8,0 -7.59,0 -11.38,0 -0.87,0 -1,-0.21 -0.79,-1 a 39.3,39.3 0 0 0 0.84,-4 c 0.12,-0.8 0.46,-0.95 1.19,-0.94 4.06,0 8.13,0 12.2,0 0.57,0 0.87,-0.1 1,-0.76 a 18.39,18.39 0 0 1 0.57,-2.75 c 0.15,-0.58 0.06,-0.79 -0.72,-0.79 z"
         id="path16"
         style="fill:#00973a;fill-opacity:1" /><path
         class="cls-1"
         d="m 83.1,21.71 a 12.86,12.86 0 0 0 -15.44,3.57 17.37,17.37 0 0 0 -3.19,14.78 8.61,8.61 0 0 0 5.69,6.77 12,12 0 0 0 6.29,0.46 c 5.09,-0.84 8.13,-4.08 10,-8.84 -1.72,-0.26 -3.31,-0.47 -4.89,-0.74 -0.5,-0.08 -0.62,0.17 -0.76,0.54 a 7.85,7.85 0 0 1 -2.3,3.33 c -3.34,2.81 -8,1.34 -8.86,-2.9 a 13.65,13.65 0 0 1 1.89,-9.94 7,7 0 0 1 3.76,-3.15 c 2.6,-0.94 6.32,-0.78 7.24,3.28 0.11,0.5 0.35,0.55 0.76,0.5 1.33,-0.14 2.66,-0.28 4,-0.37 0.54,0 0.49,-0.31 0.43,-0.66 A 8.6,8.6 0 0 0 83.1,21.71 Z"
         id="path17"
         style="fill:#00973a;fill-opacity:1" /><path
         class="cls-1"
         d="m 241.35,23.59 a 9.42,9.42 0 0 0 -7.13,-3.05 12.69,12.69 0 0 0 -10.37,4.32 16.51,16.51 0 0 0 -3.94,10.06 15.59,15.59 0 0 0 0.87,6.8 c 1.4,3.69 4.69,5.71 9.24,5.74 A 12.38,12.38 0 0 0 242,39.16 c 0.2,-0.53 0.16,-0.76 -0.44,-0.84 -1.32,-0.17 -2.63,-0.38 -3.95,-0.59 -0.51,-0.08 -0.81,0 -1,0.58 a 7,7 0 0 1 -2.18,3.19 5.66,5.66 0 0 1 -5.69,1.16 5.21,5.21 0 0 1 -3.36,-4.29 12,12 0 0 1 0.22,-5.23 c 0.6,-2.44 1.48,-4.76 3.53,-6.4 a 6.8,6.8 0 0 1 6,-1.41 c 1.94,0.45 2.79,1.88 3.22,3.67 0.1,0.4 0.36,0.41 0.69,0.38 1.36,-0.14 2.71,-0.29 4.07,-0.38 0.47,0 0.49,-0.27 0.42,-0.59 a 9.85,9.85 0 0 0 -2.18,-4.82 z"
         id="path18"
         style="fill:#00973a;fill-opacity:1" /><path
         class="cls-1"
         d="m 178.63,42.67 c -0.71,0 -0.83,-0.13 -0.67,-0.84 0.69,-3.07 1.3,-6.16 1.94,-9.24 0.8,-3.85 1.61,-7.69 2.43,-11.63 -1.49,0 -2.92,0.07 -4.33,0 -0.88,-0.06 -1.12,0.31 -1.27,1.06 -0.72,3.65 -1.48,7.29 -2.25,10.94 q -1.39,6.66 -2.8,13.32 c -0.08,0.35 -0.31,0.78 0.41,0.78 5.86,0 11.71,0 17.57,0 0.37,0 0.53,-0.11 0.6,-0.48 0.24,-1.27 0.52,-2.54 0.81,-3.9 H 190 c -3.78,-0.03 -7.58,-0.05 -11.37,-0.01 z"
         id="path19"
         style="fill:#00973a;fill-opacity:1" /><path
         class="cls-1"
         d="m 35.39,20.94 a 25.12,25.12 0 0 1 -3.36,0 c -0.89,-0.07 -1.23,0.22 -1.41,1.11 -1,5.16 -2.14,10.31 -3.22,15.46 -0.61,2.9 -1.2,5.81 -1.83,8.71 -0.14,0.63 0,0.88 0.67,0.81 0.67,-0.07 1.21,0 1.82,0 0.61,0 1.22,-0.05 1.82,0 0.6,0.05 1,-0.17 1.12,-0.88 0.86,-4.27 1.76,-8.53 2.65,-12.8 0.81,-3.85 1.6,-7.7 2.43,-11.55 0.14,-0.65 0.07,-0.91 -0.69,-0.86 z"
         id="path20"
         style="fill:#00973a;fill-opacity:1" /></g></g><metadata
     id="metadata1"><rdf:RDF><cc:Work
         rdf:about=""><dc:title>incomelec</dc:title></cc:Work></rdf:RDF></metadata></svg>
