<svg width="539" height="537" xmlns="http://www.w3.org/2000/svg" xmlns:xlink="http://www.w3.org/1999/xlink" xml:space="preserve" overflow="hidden"><defs><clipPath id="clip0"><rect x="1243" y="128" width="539" height="537"/></clipPath><clipPath id="clip1"><rect x="1426" y="205" width="169" height="386"/></clipPath><clipPath id="clip2"><rect x="1426" y="205" width="169" height="386"/></clipPath></defs><g clip-path="url(#clip0)" transform="translate(-1243 -128)"><path d="M1267.5 393.5C1267.5 258.19 1377.41 148.5 1513 148.5 1648.59 148.5 1758.5 258.19 1758.5 393.5 1758.5 528.81 1648.59 638.5 1513 638.5 1377.41 638.5 1267.5 528.81 1267.5 393.5Z" stroke="#00973A" stroke-width="6.875" stroke-miterlimit="8" fill="#00973A" fill-rule="evenodd"/><g clip-path="url(#clip1)"><g clip-path="url(#clip2)"><path d="M161.048 636.953C130.889 626.096 115.206 611.62 101.937 582.064 91.6826 560.35 90.4763 539.239 90.4763 361.905 90.4763 66.9524 79.0159 79.0159 364.921 79.0159 586.286 79.0159 600.762 82.635 627.905 141.746 638.159 163.46 639.366 184.572 639.366 361.905 639.366 656.858 650.826 644.794 364.921 644.794 227.397 644.794 178.54 642.985 161.048 636.953ZM566.985 600.159C601.969 582.064 603.175 574.223 603.175 361.905 603.175 149.587 601.969 141.746 566.985 123.651 541.048 110.381 188.794 110.381 162.857 123.651 127.873 141.746 126.667 149.587 126.667 361.905 126.667 573.016 127.873 581.461 161.651 599.556 186.381 613.429 541.048 613.429 566.985 600.159Z" stroke="#F8F7F9" stroke-width="0.603175" fill="#F8F7F9" transform="matrix(1 0 0 -1.00036 1142.36 761.105)"/><path d="M364.921 541.651C361.302 531.397 289.524 186.984 289.524 179.746 289.524 176.73 306.413 174.921 327.524 176.127L364.921 177.937 402.318 355.873C422.826 453.588 439.715 537.429 440.318 541.651 440.318 546.477 428.858 548.889 404.127 548.889 380.603 548.889 366.73 546.477 364.921 541.651Z" stroke="#F8F7F9" stroke-width="0.603175" fill="#F8F7F9" transform="matrix(1 0 0 -1.00036 1142.36 761.105)"/></g></g><path d="M1258.5 396.5C1258.5 256.772 1372.22 143.5 1512.5 143.5 1652.78 143.5 1766.5 256.772 1766.5 396.5 1766.5 536.228 1652.78 649.5 1512.5 649.5 1372.22 649.5 1258.5 536.228 1258.5 396.5Z" stroke="#F8F7F9" stroke-width="30.9375" stroke-miterlimit="8" fill="none" fill-rule="evenodd"/></g></svg>