<?xml version="1.0" encoding="UTF-8" standalone="no"?>
<!-- Uploaded to: SVG Repo, www.svgrepo.com, Generator: SVG Repo Mixer Tools -->

<svg
   width="584"
   height="585"
   viewBox="0 0 17.52 17.55"
   fill="none"
   version="1.1"
   id="svg3"
   sodipodi:docname="download-svgrepo-com.svg"
   inkscape:version="1.4 (86a8ad7, 2024-10-11)"
   xmlns:inkscape="http://www.inkscape.org/namespaces/inkscape"
   xmlns:sodipodi="http://sodipodi.sourceforge.net/DTD/sodipodi-0.dtd"
   xmlns="http://www.w3.org/2000/svg"
   xmlns:svg="http://www.w3.org/2000/svg">
  <defs
     id="defs3" />
  <sodipodi:namedview
     id="namedview3"
     pagecolor="#ffffff"
     bordercolor="#000000"
     borderopacity="0.25"
     inkscape:showpageshadow="2"
     inkscape:pageopacity="0.0"
     inkscape:pagecheckerboard="0"
     inkscape:deskcolor="#d1d1d1"
     inkscape:zoom="0.71417785"
     inkscape:cx="175.02643"
     inkscape:cy="340.25138"
     inkscape:window-width="1920"
     inkscape:window-height="1009"
     inkscape:window-x="-8"
     inkscape:window-y="-8"
     inkscape:window-maximized="1"
     inkscape:current-layer="svg3" />
  <path
     d="M 14.994525,17.542079 H 2.5545251 c -0.34678,-0.0141 -0.68738,-0.0965 -1.00229,-0.2425 -0.31491,-0.1459 -0.59796004,-0.3525 -0.83295006,-0.6079 -0.23499,-0.2554 -0.41731,-0.5547 -0.53652,-0.8806 -0.11921,-0.326 -0.17299,-0.6722 -0.15824,-1.019 v -3 c 0,-0.1989 0.07902,-0.3897 0.21967,-0.5303 0.14066,-0.1407 0.33142,-0.2197 0.53033,-0.2197 0.19892002,0 0.38968006,0.079 0.53033006,0.2197 0.14066,0.1406 0.21967,0.3314 0.21967,0.5303 v 3 c -0.02581,0.2969 0.06365,0.5924 0.24984,0.8251 0.18618,0.2328 0.45481,0.3849 0.75016,0.4249 H 14.994525 c 0.2954,-0.04 0.564,-0.1921 0.7502,-0.4249 0.1862,-0.2327 0.2756,-0.5282 0.2498,-0.8251 v -3 c 0,-0.1989 0.079,-0.3897 0.2197,-0.5303 0.1406,-0.1407 0.3314,-0.2197 0.5303,-0.2197 0.1989,0 0.3897,0.079 0.5303,0.2197 0.1407,0.1406 0.2197,0.3314 0.2197,0.5303 v 3 c 0.03,0.6954 -0.2159,1.3744 -0.6841,1.8894 -0.4682,0.5151 -1.1208,0.8243 -1.8159,0.8606 z"
     fill="#000000"
     id="path1"
     style="fill:#006f32;fill-opacity:1" />
  <path
     d="m 8.7745251,12.542079 c -0.0985,4e-4 -0.1962,-0.0188 -0.2872,-0.0566 -0.091,-0.0377 -0.1736,-0.0933 -0.2428,-0.1634 l -4,-3.9999998 c -0.13248,-0.1422 -0.2046,-0.3303 -0.20118,-0.5246 0.00343,-0.1943 0.08214,-0.3796 0.21956,-0.5171 0.13741,-0.1374 0.3228,-0.2161 0.5171,-0.2195 0.1943,-0.0034 0.38234,0.0687 0.52452,0.2012 l 3.47,3.4699998 3.4699999,-3.4699998 c 0.1422,-0.1325 0.3302,-0.2046 0.5245,-0.2012 0.1943,0.0034 0.3797,0.0821 0.5171,0.2195 0.1374,0.1375 0.2161,0.3228 0.2196,0.5171 0.0034,0.1943 -0.0687,0.3824 -0.2012,0.5246 L 9.3045251,12.322079 c -0.0692,0.0701 -0.1518,0.1257 -0.2428,0.1634 -0.091,0.0378 -0.1887,0.057 -0.2872,0.0566 z"
     fill="#000000"
     id="path2"
     style="fill:#006f32;fill-opacity:1" />
  <path
     d="m 8.7745251,12.542079 c -0.1981,-0.0026 -0.3874,-0.0824 -0.5275,-0.2225 -0.1401,-0.1401 -0.2199,-0.3294 -0.2225,-0.5275 V 0.79207921 c 0,-0.19891 0.079,-0.38968 0.2197,-0.53033 0.1406,-0.14065 0.3314,-0.21967 0.5303,-0.21967 0.1989,0 0.3897,0.07902 0.5303,0.21967 0.1407,0.14065 0.2197,0.33142 0.2197,0.53033 V 11.792079 c -0.0026,0.1981 -0.0824,0.3874 -0.2225,0.5275 -0.1401,0.1401 -0.3294,0.2199 -0.5275,0.2225 z"
     fill="#000000"
     id="path3"
     style="fill:#006f32;fill-opacity:1" />
</svg>
