<?xml version="1.0" encoding="UTF-8" standalone="no"?>
<!-- Uploaded to: SVG Repo, www.svgrepo.com, Generator: SVG Repo Mixer Tools -->

<svg
   fill="#000000"
   version="1.1"
   id="Layer_1"
   width="748.09998"
   height="783"
   viewBox="0 0 86.031496 90.045"
   enable-background="new 0 0 92 92"
   xml:space="preserve"
   sodipodi:docname="download-svgrepo-com.svg"
   inkscape:version="1.4 (86a8ad7, 2024-10-11)"
   xmlns:inkscape="http://www.inkscape.org/namespaces/inkscape"
   xmlns:sodipodi="http://sodipodi.sourceforge.net/DTD/sodipodi-0.dtd"
   xmlns="http://www.w3.org/2000/svg"
   xmlns:svg="http://www.w3.org/2000/svg"><defs
   id="defs1" /><sodipodi:namedview
   id="namedview1"
   pagecolor="#ffffff"
   bordercolor="#000000"
   borderopacity="0.25"
   inkscape:showpageshadow="2"
   inkscape:pageopacity="0.0"
   inkscape:pagecheckerboard="0"
   inkscape:deskcolor="#d1d1d1"
   inkscape:zoom="0.70710678"
   inkscape:cx="223.44574"
   inkscape:cy="352.13918"
   inkscape:window-width="1920"
   inkscape:window-height="1009"
   inkscape:window-x="-8"
   inkscape:window-y="-8"
   inkscape:window-maximized="1"
   inkscape:current-layer="Layer_1" />
<path
   id="XMLID_1335_"
   d="m 86.019751,57.809773 v 27.2 c 0,2.8 -2.2,5 -5,5 H 5.0197518 c -2.8,0 -5.00000006,-2.2 -5.00000006,-5 v -27.2 c 0,-2.8 2.20000006,-5 5.00000006,-5 2.8,0 4.9999992,2.2 4.9999992,5 v 22.2 h 66 v -22.2 c 0,-2.8 2.2,-5 5,-5 2.8,0 5,2.2 5,5 z m -46.6,6.2 c 0.9,1 2.2,1.5 3.6,1.5 1.4,0 2.6,-0.5 3.6,-1.5 l 19.9,-20.4 c 1.9,-2 1.9,-5.1 -0.1,-7.1 -2,-1.9 -5.1,-1.9 -7.1,0.1 l -11.3,11.7 v -43.3 c 0,-2.8 -2.2,-5.00000005 -5,-5.00000005 -2.8,0 -5,2.20000005 -5,5.00000005 v 43.3 l -11.4,-11.6 c -1.9,-2 -5.1,-2 -7.1,-0.1 -2,1.9 -2,5.1 -0.1,7.1 z"
   style="fill:#006f32;fill-opacity:1" />
</svg>
