<?xml version="1.0" encoding="UTF-8" standalone="no"?>
<!-- Uploaded to: SVG Repo, www.svgrepo.com, Generator: SVG Repo Mixer Tools -->

<svg
   width="712"
   height="802"
   viewBox="0 0 16.02 18.045"
   version="1.1"
   id="svg2"
   sodipodi:docname="Historygreen2.svg"
   inkscape:version="1.4 (86a8ad7, 2024-10-11)"
   xmlns:inkscape="http://www.inkscape.org/namespaces/inkscape"
   xmlns:sodipodi="http://sodipodi.sourceforge.net/DTD/sodipodi-0.dtd"
   xmlns="http://www.w3.org/2000/svg"
   xmlns:svg="http://www.w3.org/2000/svg">
  <defs
     id="defs2" />
  <sodipodi:namedview
     id="namedview2"
     pagecolor="#ffffff"
     bordercolor="#000000"
     borderopacity="0.25"
     inkscape:showpageshadow="2"
     inkscape:pageopacity="0.0"
     inkscape:pagecheckerboard="0"
     inkscape:deskcolor="#d1d1d1"
     inkscape:zoom="0.70710678"
     inkscape:cx="118.79394"
     inkscape:cy="485.07525"
     inkscape:window-width="1920"
     inkscape:window-height="1009"
     inkscape:window-x="-8"
     inkscape:window-y="-8"
     inkscape:window-maximized="1"
     inkscape:current-layer="svg2" />
  <path
     fill="#494c4e"
     d="m 16.006153,10.021822 a 8.0000005,8.0000005 0 0 1 -16.00000068,0 1,1 0 0 1 2.00000008,0 6,6 0 1 0 6.5,-5.9799997 v 1.48 a 0.477,0.477 0 0 1 -0.27,0.44 0.466,0.466 0 0 1 -0.23,0.06 0.52,0.52 0 0 1 -0.29,-0.09 l -3.5,-2.5 a 0.505,0.505 0 0 1 0,-0.82 l 3.5,-2.50000014 a 0.488,0.488 0 0 1 0.52,-0.03 0.477,0.477 0 0 1 0.27,0.44 V 2.0418223 a 7.987,7.987 0 0 1 7.5000006,7.9799997 z"
     id="path1"
     style="fill:#95c11f;fill-opacity:1" />
  <path
     fill="#494c4e"
     d="m 10.693016,8.73498 -1.7099999,1.71 v 2.58 a 1,1 0 0 1 -2,0 v -3 a 0.69,0.69 0 0 1 0.04,-0.25 0.37,0.37 0 0 1 0.04,-0.14 0.988,0.988 0 0 1 0.21,-0.32 l 2,-2 a 1.0040917,1.0040917 0 0 1 1.4199999,1.42 z"
     id="path2"
     style="fill:#95c11f;fill-opacity:1" />
</svg>
