<?xml version="1.0" encoding="UTF-8" standalone="no"?>
<!-- Uploaded to: SVG Repo, www.svgrepo.com, Generator: SVG Repo Mixer Tools -->

<svg
   width="720"
   height="719"
   viewBox="0 0 21.6 21.57"
   fill="none"
   version="1.1"
   id="svg3"
   sodipodi:docname="history-3-svgrepo-com.svg"
   inkscape:version="1.4 (86a8ad7, 2024-10-11)"
   xmlns:inkscape="http://www.inkscape.org/namespaces/inkscape"
   xmlns:sodipodi="http://sodipodi.sourceforge.net/DTD/sodipodi-0.dtd"
   xmlns="http://www.w3.org/2000/svg"
   xmlns:svg="http://www.w3.org/2000/svg">
  <defs
     id="defs3" />
  <sodipodi:namedview
     id="namedview3"
     pagecolor="#ffffff"
     bordercolor="#000000"
     borderopacity="0.25"
     inkscape:showpageshadow="2"
     inkscape:pageopacity="0.0"
     inkscape:pagecheckerboard="0"
     inkscape:deskcolor="#d1d1d1"
     inkscape:zoom="0.71417785"
     inkscape:cx="317.848"
     inkscape:cy="194.62939"
     inkscape:window-width="1920"
     inkscape:window-height="1009"
     inkscape:window-x="-8"
     inkscape:window-y="-8"
     inkscape:window-maximized="1"
     inkscape:current-layer="svg3" />
  <path
     fill-rule="evenodd"
     clip-rule="evenodd"
     d="m 7.9114612,1.2082331 c 0.14916,0.38642 -0.04317,0.8206 -0.42959,0.96977 -0.14144,0.0546 -0.2812,0.11257 -0.41919,0.17383 -0.37859,0.16807 -0.82174,-0.00258 -0.9898,-0.38117 -0.16807,-0.37858 0.00258,-0.82173 0.38117,-0.9898 0.1605,-0.07125 0.32309,-0.13870003 0.48764,-0.20222003 0.38642,-0.14917 0.8206,0.04317 0.96977,0.42959003 z m -3.45188,1.84272 c 0.28567,0.29995 0.27408,0.77469 -0.02587,1.06035 -0.10967,0.10445 -0.21678,0.21155 -0.32122,0.32122 -0.28566,0.29995 -0.7604,0.31154 -1.06035,0.02587 -0.29995,-0.28566 -0.31153,-0.76039 -0.02587,-1.06034 0.12127,-0.12733 0.24563,-0.2517 0.37297,-0.37297 0.29995,-0.28566 0.77468,-0.27408 1.06034,0.02587 z m -2.48773,3.02074 c 0.37859,0.16807 0.54924,0.61121 0.38117,0.9898 -0.06126,0.13799 -0.11923,0.27775 -0.17383,0.41919 -0.14917,0.38642 -0.58335,0.57875 -0.96977,0.42959 -0.38642001,-0.14917 -0.57876001,-0.58335 -0.42959001,-0.96977 0.06352,-0.16455 0.13097,-0.32714 0.20222001,-0.48764 0.16807,-0.37859 0.61122,-0.54924 0.9898,-0.38117 z m -1.13888001,3.743 c 0.41409001,0.0101 0.74167001,0.3538999 0.73166001,0.7678999 -0.00183,0.0758 -0.00275,0.1518 -0.00275,0.2281 0,0.0763 9.2e-4,0.1523 0.00275,0.2281 0.01001,0.414 -0.31757,0.7578 -0.73166001,0.7679 -0.4141,0.01 -0.7579,-0.3176 -0.7679,-0.7317 -0.00212,-0.0879 -0.00319,-0.176 -0.00319,-0.2643 0,-0.0883 0.00107,-0.1764 0.00319,-0.2643 0.01,-0.4141 0.3538,-0.7416999 0.7679,-0.7316999 z M 20.414381,13.711093 c 0.3864,0.1492 0.5787,0.5834 0.4295,0.9698 -0.0635,0.1645 -0.1309,0.3271 -0.2022,0.4876 -0.168,0.3786 -0.6112,0.5493 -0.9898,0.3812 -0.3786,-0.1681 -0.5492,-0.6112 -0.3811,-0.9898 0.0612,-0.138 0.1192,-0.2778 0.1738,-0.4192 0.1492,-0.3864 0.5833,-0.5787 0.9698,-0.4296 z m -19.2049598,0 c 0.38642,-0.1491 0.8206,0.0432 0.96977,0.4296 0.0546,0.1414 0.11257,0.2812 0.17383,0.4192 0.16807,0.3786 -0.00258,0.8217 -0.38117,0.9898 -0.37858,0.1681 -0.82173,-0.0026 -0.9898,-0.3812 -0.07125,-0.1605 -0.13870001,-0.3231 -0.20222001,-0.4876 -0.14917,-0.3864 0.04317,-0.8206 0.42959001,-0.9698 z m 17.3621598,3.4519 c 0.3,0.2857 0.3116,0.7604 0.0259,1.0603 -0.1213,0.1274 -0.2456,0.2517 -0.373,0.373 -0.2999,0.2857 -0.7746,0.2741 -1.0603,-0.0259 -0.2857,-0.2999 -0.2741,-0.7746 0.0259,-1.0603 0.1096,-0.1045 0.2167,-0.2116 0.3212,-0.3212 0.2857,-0.3 0.7604,-0.3116 1.0603,-0.0259 z m -15.5194398,0 c 0.29995,-0.2857 0.77469,-0.2741 1.06035,0.0259 0.10445,0.1096 0.21155,0.2167 0.32122,0.3212 0.29995,0.2857 0.31154,0.7604 0.02587,1.0603 -0.28566,0.3 -0.76039,0.3116 -1.06034,0.0259 -0.12733,-0.1213 -0.2517,-0.2456 -0.37297,-0.373 -0.28566,-0.2999 -0.27408,-0.7746 0.02587,-1.0603 z m 3.02074,2.4877 c 0.16807,-0.3786 0.61121,-0.5492 0.9898,-0.3811 0.13799,0.0612 0.27775,0.1192 0.41919,0.1738 0.38642,0.1492 0.57875,0.5833 0.42959,0.9698 -0.14917,0.3864 -0.58335,0.5787 -0.96977,0.4295 -0.16455,-0.0635 -0.32714,-0.1309 -0.48764,-0.2022 -0.37859,-0.168 -0.54924,-0.6112 -0.38117,-0.9898 z m 9.4779998,0 c 0.1681,0.3786 -0.0026,0.8218 -0.3812,0.9898 -0.1605,0.0713 -0.3231,0.1387 -0.4876,0.2022 -0.3864,0.1492 -0.8206,-0.0431 -0.9698,-0.4295 -0.1491,-0.3865 0.0432,-0.8206 0.4296,-0.9698 0.1414,-0.0546 0.2812,-0.1126 0.4192,-0.1738 0.3786,-0.1681 0.8217,0.0025 0.9898,0.3811 z m -5.7349998,1.1389 c 0.0101,-0.4141 0.3538998,-0.7417 0.7678998,-0.7317 0.0758,0.0019 0.1518,0.0028 0.2281,0.0028 0.0763,0 0.1523,-9e-4 0.2281,-0.0028 0.414,-0.01 0.7578,0.3176 0.7679,0.7317 0.01,0.4141 -0.3176,0.7579 -0.7317,0.7679 -0.0879,0.0021 -0.176,0.0032 -0.2643,0.0032 -0.0883,0 -0.1764,-0.0011 -0.2643,-0.0032 -0.4141,-0.01 -0.7416998,-0.3538 -0.7316998,-0.7679 z"
     fill="#1C274C"
     id="path1"
     style="fill:#006f32;fill-opacity:1" />
  <path
     fill-rule="evenodd"
     clip-rule="evenodd"
     d="m 10.811881,1.5606931 c 5.1086,0 9.25,4.14137 9.25,9.2499999 0,0.4142 0.3358,0.75 0.75,0.75 0.4142,0 0.75,-0.3358 0.75,-0.75 0,-5.9370599 -4.8129,-10.74999993 -10.75,-10.74999993 -0.4142,0 -0.75,0.33579 -0.75,0.75 0,0.41421003 0.3358,0.75000003 0.75,0.75000003 z"
     fill="#1C274C"
     id="path2"
     style="fill:#006f32;fill-opacity:1" />
  <path
     fill-rule="evenodd"
     clip-rule="evenodd"
     d="m 10.811881,7.0606931 c 0.4142,0 0.75,0.33579 0.75,0.75 v 3.2499999 h 3.25 c 0.4142,0 0.75,0.3358 0.75,0.75 0,0.4142 -0.3358,0.75 -0.75,0.75 h -4 c -0.4142,0 -0.75,-0.3358 -0.75,-0.75 V 7.8106931 c 0,-0.41421 0.3358,-0.75 0.75,-0.75 z"
     fill="#1C274C"
     id="path3"
     style="fill:#006f32;fill-opacity:1" />
</svg>
