<svg width="474" height="474" xmlns="http://www.w3.org/2000/svg" xmlns:xlink="http://www.w3.org/1999/xlink" xml:space="preserve" overflow="hidden"><defs><clipPath id="clip0"><rect x="1845" y="614" width="154" height="365"/></clipPath><clipPath id="clip1"><rect x="1845" y="614" width="154" height="365"/></clipPath></defs><g transform="translate(-1686 -560)"><path d="M1689.5 797C1689.5 668.041 1794.04 563.5 1923 563.5 2051.96 563.5 2156.5 668.041 2156.5 797 2156.5 925.958 2051.96 1030.5 1923 1030.5 1794.04 1030.5 1689.5 925.958 1689.5 797Z" stroke="#00973A" stroke-width="6.875" stroke-miterlimit="8" fill="#00973A" fill-rule="evenodd"/><g clip-path="url(#clip0)"><g clip-path="url(#clip1)"><g><path d="M136.583 451.88C101.413 451.027 60.4204 448.496 46.747 446.333 33.987 444.315 20.3391 435.936 15.015 426.851 8.34253 415.465 5.1363 394.645 4.11779 356.09 3.22401 322.257 3.18085 135.124 4.05947 103.25 5.21801 61.2218 7.88141 41.9459 14.225 29.6788 18.0586 22.2653 30.4602 12.8947 39.4499 10.6188 45.4416 9.10193 60.6813 7.26954 76.8277 6.12456 103.451 4.23664 129.378 3.59174 197.557 3.12156 287.309 2.50261 341.641 3.78766 378.041 7.39033 393.999 8.9697 399.619 10.2636 406.712 13.9909 425.502 23.8648 430.49 37.227 433.508 85.7706 434.958 109.091 434.932 345.41 433.479 369.812 430.628 417.626 425.436 431.446 406.602 441.343 394.739 447.577 371.507 449.868 302.435 451.617 275.372 452.303 161.451 452.483 136.584 451.88ZM198.776 395.452C209.508 394.949 218.513 394.402 218.788 394.236 219.063 394.07 219.498 392.736 219.753 391.272 220.009 389.808 226.84 357.147 234.934 318.693 266.613 168.183 281.887 93.917 285.411 73.2732 286.931 64.3683 286.957 63.5089 285.743 62.1676 283.863 60.0901 276.139 58.9658 260.483 58.4905 237.894 57.8049 223.164 59.7897 219.702 63.9854 217.842 66.2389 196.522 165.919 165.075 319.38 152.244 381.998 150.316 392.403 151.32 393.612 152.662 395.23 167.293 397.062 175.2 396.602 177.435 396.471 188.045 395.954 198.776 395.452Z" stroke="#00973A" stroke-width="1.13819" fill="#00973A" transform="matrix(1 0 0 1.00172 1704.77 566.821)"/><path d="M160.566 394.943C159.224 394.759 156.717 394.241 154.994 393.791L151.861 392.973 152.403 389.166C155.594 366.749 215.576 80.0074 219.748 67.2258 221.662 61.3614 229.629 59.6032 254.06 59.653 270.134 59.6859 280.769 60.6069 283.799 62.2288 284.843 62.7872 285.359 63.9304 285.357 65.6777 285.35 71.904 276.214 116.813 232.029 327.833L218.369 393.069 215.89 393.455C207.48 394.765 167.18 395.848 160.566 394.943Z" stroke="#F8F7F9" stroke-width="1.13819" fill="#F8F7F9" transform="matrix(1 0 0 1.00172 1704.77 566.821)"/></g></g></g></g></svg>