<?xml version="1.0" encoding="UTF-8" standalone="no"?>
<!-- Uploaded to: SVG Repo, www.svgrepo.com, Transformed by: SVG Repo Mixer Tools -->

<svg
   fill="#f8f7f9"
   width="701.57153"
   height="651.71796"
   viewBox="0 0 449.00578 417.09949"
   stroke="#f8f7f9"
   version="1.1"
   id="svg2"
   sodipodi:docname="language-white.svg"
   inkscape:version="1.4 (86a8ad7, 2024-10-11)"
   xmlns:inkscape="http://www.inkscape.org/namespaces/inkscape"
   xmlns:sodipodi="http://sodipodi.sourceforge.net/DTD/sodipodi-0.dtd"
   xmlns="http://www.w3.org/2000/svg"
   xmlns:svg="http://www.w3.org/2000/svg">
  <defs
     id="defs2" />
  <sodipodi:namedview
     id="namedview2"
     pagecolor="#ffffff"
     bordercolor="#000000"
     borderopacity="0.25"
     inkscape:showpageshadow="2"
     inkscape:pageopacity="0.0"
     inkscape:pagecheckerboard="0"
     inkscape:deskcolor="#d1d1d1"
     inkscape:zoom="0.70710678"
     inkscape:cx="241.83052"
     inkscape:cy="371.93817"
     inkscape:window-width="1920"
     inkscape:window-height="1009"
     inkscape:window-x="-8"
     inkscape:window-y="-8"
     inkscape:window-maximized="1"
     inkscape:current-layer="svg2" />
  <g
     id="SVGRepo_bgCarrier"
     stroke-width="0"
     transform="translate(-31.50001,-47.50001)" />
  <g
     id="SVGRepo_tracerCarrier"
     stroke-linecap="round"
     stroke-linejoin="round"
     transform="translate(-31.50001,-47.50001)" />
  <g
     id="SVGRepo_iconCarrier"
     transform="translate(-31.50001,-47.50001)">
    <title
       id="title1">ionicons-v5-l</title>
    <path
       d="m 478.33,433.6 -90,-218 a 22,22 0 0 0 -40.67,0 l -90,218 a 22,22 0 1 0 40.67,16.79 L 316.66,406 h 102.67 l 18.33,44.39 A 22,22 0 0 0 458,464 22,22 0 0 0 478.32,433.6 Z M 334.83,362 368,281.65 401.17,362 Z"
       id="path1" />
    <path
       d="m 267.84,342.92 a 22,22 0 0 0 -4.89,-30.7 c -0.2,-0.15 -15,-11.13 -36.49,-34.73 C 266.11,223.81 288.57,162.74 297.73,134 H 330 a 22,22 0 0 0 0,-44 H 214 V 70 a 22,22 0 0 0 -44,0 V 90 H 54 a 22,22 0 0 0 0,44 h 197.25 c -9.52,26.95 -27.05,69.5 -53.79,108.36 -31.41,-41.68 -43.08,-68.65 -43.17,-68.87 a 22,22 0 0 0 -40.58,17 c 0.58,1.38 14.55,34.23 52.86,83.93 0.92,1.19 1.83,2.35 2.74,3.51 -39.24,44.35 -77.74,71.86 -93.85,80.74 a 22.00126,22.00126 0 1 0 21.07,38.63 c 2.16,-1.18 48.6,-26.89 101.63,-85.59 22.52,24.08 38,35.44 38.93,36.1 a 22,22 0 0 0 30.75,-4.9 z"
       id="path2" />
  </g>
</svg>
