<?xml version="1.0" encoding="UTF-8" standalone="no"?>
<!-- Uploaded to: SVG Repo, www.svgrepo.com, Generator: SVG Repo Mixer Tools -->

<svg
   width="403"
   height="545"
   viewBox="0 0 12.09 16.35"
   fill="none"
   version="1.1"
   id="svg2"
   sodipodi:docname="voice-fill-svgrepo-com.svg"
   inkscape:version="1.4 (86a8ad7, 2024-10-11)"
   xmlns:inkscape="http://www.inkscape.org/namespaces/inkscape"
   xmlns:sodipodi="http://sodipodi.sourceforge.net/DTD/sodipodi-0.dtd"
   xmlns="http://www.w3.org/2000/svg"
   xmlns:svg="http://www.w3.org/2000/svg">
  <defs
     id="defs2" />
  <sodipodi:namedview
     id="namedview2"
     pagecolor="#ffffff"
     bordercolor="#000000"
     borderopacity="0.25"
     inkscape:showpageshadow="2"
     inkscape:pageopacity="0.0"
     inkscape:pagecheckerboard="0"
     inkscape:deskcolor="#d1d1d1"
     inkscape:zoom="1.01"
     inkscape:cx="115.84158"
     inkscape:cy="280.19802"
     inkscape:window-width="1920"
     inkscape:window-height="1009"
     inkscape:window-x="-8"
     inkscape:window-y="-8"
     inkscape:window-maximized="1"
     inkscape:current-layer="svg2" />
  <path
     d="m 6.0588119,10.334611 c 1.4229,0 2.5714,-1.1486001 2.5714,-2.5714001 v -5.14287 c 0,-1.42286 -1.1485,-2.57143001 -2.5714,-2.57143001 -1.4229,0 -2.57143,1.14857001 -2.57143,2.57143001 v 5.14287 c 0,1.4228 1.14853,2.5714001 2.57143,2.5714001 z"
     fill="#000000"
     id="path1"
     style="fill:#f8f7f9;fill-opacity:1" />
  <path
     d="m 10.601712,7.7632109 h 1.4571 c 0,2.9228001 -2.3314001,5.3400001 -5.1429001,5.7600001 v 2.8114 h -1.7142 v -2.8114 c -2.81147,-0.42 -5.14290002,-2.8372 -5.14290002,-5.7600001 H 1.5159519 c 0,2.5714001 2.17715,4.3714001 4.54286,4.3714001 2.3657,0 4.5429001,-1.8 4.5429001,-4.3714001 z"
     fill="#000000"
     id="path2"
     style="fill:#f8f7f9;fill-opacity:1" />
</svg>
