<?xml version="1.0" encoding="UTF-8" standalone="no"?>
<!-- Uploaded to: SVG Repo, www.svgrepo.com, Transformed by: SVG Repo Mixer Tools -->

<svg
   width="600.5"
   height="67.300003"
   viewBox="0 0 18.015 2.0190002"
   version="1.1"
   fill="#000000"
   id="svg1"
   sodipodi:docname="minimize-svgrepo-com (1).svg"
   inkscape:version="1.4 (86a8ad7, 2024-10-11)"
   xmlns:inkscape="http://www.inkscape.org/namespaces/inkscape"
   xmlns:sodipodi="http://sodipodi.sourceforge.net/DTD/sodipodi-0.dtd"
   xmlns="http://www.w3.org/2000/svg"
   xmlns:svg="http://www.w3.org/2000/svg">
  <defs
     id="defs1" />
  <sodipodi:namedview
     id="namedview1"
     pagecolor="#ffffff"
     bordercolor="#000000"
     borderopacity="0.25"
     inkscape:showpageshadow="2"
     inkscape:pageopacity="0.0"
     inkscape:pagecheckerboard="0"
     inkscape:deskcolor="#d1d1d1"
     inkscape:zoom="1.01"
     inkscape:cx="313.86139"
     inkscape:cy="36.633663"
     inkscape:window-width="1920"
     inkscape:window-height="1009"
     inkscape:window-x="-8"
     inkscape:window-y="-8"
     inkscape:window-maximized="1"
     inkscape:current-layer="svg1" />
  <g
     id="SVGRepo_bgCarrier"
     stroke-width="0" />
  <g
     id="SVGRepo_tracerCarrier"
     stroke-linecap="round"
     stroke-linejoin="round" />
  <g
     id="SVGRepo_iconCarrier"
     transform="translate(-2.9905312,-10.989155)">
    <title
       id="title1">minimize_line</title>
    <g
       id="页面-1"
       stroke="none"
       stroke-width="1"
       fill="none"
       fill-rule="evenodd">
      <g
         id="System"
         transform="translate(-192,-192)">
        <g
           id="minimize_line"
           transform="translate(192,192)">
          <path
             d="M 24,0 V 24 H 0 V 0 Z m -11.40651,23.257841 -0.01155,0.0017 -0.07106,0.03553 -0.019,0.0037 v 0 l -0.01516,-0.0037 -0.07106,-0.03553 c -0.0098,-0.0031 -0.01861,-4.89e-4 -0.02351,0.0054 l -0.0041,0.01092 -0.01709,0.427279 0.005,0.02039 0.01101,0.01222 0.103573,0.07398 0.01487,0.0039 v 0 l 0.01177,-0.0039 0.103575,-0.07398 0.0126,-0.01604 v 0 l 0.0034,-0.01656 -0.01709,-0.427279 c -0.002,-0.01013 -0.0085,-0.01653 -0.01607,-0.01799 z m 0.264901,-0.112555 -0.01384,0.002 -0.184705,0.09235 -0.01,0.01024 v 0 l -0.0027,0.01121 0.0179,0.429528 0.0048,0.01278 v 0 l 0.0085,0.0071 0.200954,0.09275 c 0.01209,0.0037 0.02289,-2.52e-4 0.02849,-0.008 l 0.004,-0.01406 -0.03415,-0.614631 c -0.0024,-0.01194 -0.01027,-0.01953 -0.01929,-0.02125 z m -0.715344,0.002 c -0.0098,-0.0049 -0.02087,-0.002 -0.02741,0.0053 l -0.0057,0.01394 -0.03415,0.614631 c -6.39e-4,0.0115 0.007,0.0207 0.01688,0.0234 l 0.01561,-0.0013 0.200955,-0.09275 0.0094,-0.0081 v 0 l 0.0039,-0.0118 0.0179,-0.429528 -0.0032,-0.01259 v 0 l -0.0095,-0.0089 z"
             id="MingCute"
             fill-rule="nonzero" />
          <path
             d="m 3,12 c 0,-0.5523 0.44772,-1 1,-1 h 16 c 0.5523,0 1,0.4477 1,1 0,0.5523 -0.4477,1 -1,1 H 4 C 3.44772,13 3,12.5523 3,12 Z"
             id="路径"
             fill="#95c11f" />
        </g>
      </g>
    </g>
  </g>
</svg>
